<svg width="1200" height="760" viewBox="0 0 1200 760" fill="none" xmlns="http://www.w3.org/2000/svg">
  <rect width="1200" height="760" rx="32" fill="#071735"/>

  <rect x="48" y="48" width="1104" height="664" rx="20" fill="#081C3B" stroke="#12305F"/>

  <rect x="48" y="48" width="230" height="664" rx="20" fill="#071734"/>
  <rect x="66" y="70" width="194" height="44" rx="10" fill="#0F2A57"/>
  <text x="80" y="98" font-family="Inter, Arial" font-size="14" font-weight="700" fill="#F4F8FF">Faz o Simples FC</text>

  <rect x="60" y="140" width="206" height="40" rx="8" fill="#63D978"/>
  <text x="80" y="166" font-family="Inter, Arial" font-size="20" fill="#0A1E42">🏠</text><text x="108" y="166" font-family="Inter, Arial" font-size="20" font-weight="700" fill="#0A1E42">Dashboard</text>

  <rect x="60" y="188" width="206" height="40" rx="8" fill="#0D254E"/>
  <text x="80" y="214" font-family="Inter, Arial" font-size="20" fill="#FFFFFF">🏆</text><text x="108" y="214" font-family="Inter, Arial" font-size="20" fill="#F4F8FF">Jogos</text>

  <rect x="60" y="236" width="206" height="40" rx="8" fill="#0D254E"/>
  <text x="80" y="262" font-family="Inter, Arial" font-size="20" fill="#FFFFFF">👥</text><text x="108" y="262" font-family="Inter, Arial" font-size="20" fill="#F4F8FF">Jogadores</text>

  <rect x="60" y="284" width="206" height="40" rx="8" fill="#0D254E"/>
  <text x="80" y="310" font-family="Inter, Arial" font-size="20" fill="#FFFFFF">🔥</text><text x="108" y="310" font-family="Inter, Arial" font-size="20" fill="#F4F8FF">Churrascos</text>

  <rect x="60" y="332" width="206" height="40" rx="8" fill="#0D254E"/>
  <text x="80" y="358" font-family="Inter, Arial" font-size="20" fill="#FFFFFF">💬</text><text x="108" y="358" font-family="Inter, Arial" font-size="20" fill="#F4F8FF">Chats</text>

  <rect x="60" y="380" width="206" height="40" rx="8" fill="#0D254E"/>
  <text x="80" y="406" font-family="Inter, Arial" font-size="20" fill="#FFFFFF">🧾</text><text x="108" y="406" font-family="Inter, Arial" font-size="20" fill="#F4F8FF">Membros</text>

  <rect x="60" y="428" width="206" height="40" rx="8" fill="#0D254E"/>
  <text x="80" y="454" font-family="Inter, Arial" font-size="20" fill="#FFFFFF">📊</text><text x="108" y="454" font-family="Inter, Arial" font-size="20" fill="#F4F8FF">Financeiro</text>

  <rect x="60" y="476" width="206" height="40" rx="8" fill="#0D254E"/>
  <text x="80" y="502" font-family="Inter, Arial" font-size="20" fill="#FFFFFF">⚙️</text><text x="108" y="502" font-family="Inter, Arial" font-size="20" fill="#F4F8FF">Configurações</text>

  <rect x="60" y="532" width="206" height="1" fill="#1D3764"/>
  <text x="66" y="560" font-family="Inter, Arial" font-size="14" font-weight="700" fill="#7F98C4">COMO JOGADOR</text>

  <rect x="60" y="574" width="206" height="40" rx="8" fill="#0D254E"/>
  <text x="80" y="600" font-family="Inter, Arial" font-size="20" fill="#FFFFFF">📋</text><text x="108" y="600" font-family="Inter, Arial" font-size="20" fill="#F4F8FF">Meu Painel</text>

  <rect x="60" y="622" width="206" height="40" rx="8" fill="#0D254E"/>
  <text x="80" y="648" font-family="Inter, Arial" font-size="20" fill="#FFFFFF">👤</text><text x="108" y="648" font-family="Inter, Arial" font-size="20" fill="#F4F8FF">Meu Perfil</text>

  <text x="308" y="98" font-family="Inter, Arial" font-size="30" font-weight="700" fill="#F4F8FF">Dashboard</text>

  <rect x="308" y="126" width="250" height="112" rx="14" fill="#1A2F54"/>
  <rect x="572" y="126" width="250" height="112" rx="14" fill="#1A2F54"/>
  <rect x="836" y="126" width="280" height="112" rx="14" fill="#1A2F54"/>

  <text x="332" y="164" font-family="Inter, Arial" font-size="18" fill="#B9CAE5">Receita do jogo</text>
  <text x="332" y="206" font-family="Inter, Arial" font-size="30" font-weight="700" fill="#5FE07A">R$ 1.240,00</text>

  <text x="596" y="164" font-family="Inter, Arial" font-size="18" fill="#B9CAE5">Pagamentos</text>
  <text x="596" y="206" font-family="Inter, Arial" font-size="30" font-weight="700" fill="#7AAEFD">84%</text>

  <text x="860" y="164" font-family="Inter, Arial" font-size="18" fill="#B9CAE5">Pendências</text>
  <text x="860" y="206" font-family="Inter, Arial" font-size="30" font-weight="700" fill="#F5B860">R$ 240,00</text>

  <rect x="308" y="256" width="548" height="424" rx="14" fill="#1A2F54"/>
  <rect x="872" y="256" width="244" height="424" rx="14" fill="#1A2F54"/>

  <text x="332" y="292" font-family="Inter, Arial" font-size="20" font-weight="700" fill="#F4F8FF">Jogos recentes</text>
  <rect x="332" y="312" width="500" height="2" fill="#2D4268"/>

  <rect x="332" y="334" width="500" height="56" rx="10" fill="#1F3A63"/>
  <rect x="332" y="402" width="500" height="56" rx="10" fill="#1F3A63"/>
  <rect x="332" y="470" width="500" height="56" rx="10" fill="#1F3A63"/>
  <rect x="332" y="538" width="500" height="56" rx="10" fill="#1F3A63"/>

  <text x="354" y="366" font-family="Inter, Arial" font-size="16" fill="#D9E5FA">CAMPO DO VIANA · 26/02/2026 · 20h30</text>
  <text x="760" y="366" font-family="Inter, Arial" font-size="14" font-weight="700" fill="#5FE07A">16/16</text>

  <text x="354" y="434" font-family="Inter, Arial" font-size="16" fill="#D9E5FA">CAMPO DO VIANA · 19/02/2026 · 20h30</text>
  <text x="760" y="434" font-family="Inter, Arial" font-size="14" font-weight="700" fill="#7AAEFD">15/16</text>

  <text x="354" y="502" font-family="Inter, Arial" font-size="16" fill="#D9E5FA">CAMPO DO VIANA · 12/02/2026 · 20h30</text>
  <text x="760" y="502" font-family="Inter, Arial" font-size="14" font-weight="700" fill="#7AAEFD">14/16</text>

  <text x="354" y="570" font-family="Inter, Arial" font-size="16" fill="#D9E5FA">CAMPO DO VIANA · 08/02/2026 · 20h30</text>
  <text x="760" y="570" font-family="Inter, Arial" font-size="14" font-weight="700" fill="#5FE07A">16/16</text>

  <text x="896" y="292" font-family="Inter, Arial" font-size="20" font-weight="700" fill="#F4F8FF">Débitos recentes</text>
  <rect x="896" y="312" width="196" height="2" fill="#2D4268"/>

  <rect x="896" y="334" width="196" height="58" rx="10" fill="#1F3A63"/>
  <rect x="896" y="404" width="196" height="58" rx="10" fill="#1F3A63"/>
  <rect x="896" y="474" width="196" height="58" rx="10" fill="#1F3A63"/>
  <rect x="896" y="544" width="196" height="58" rx="10" fill="#1F3A63"/>

  <text x="908" y="358" font-family="Inter, Arial" font-size="14" fill="#D9E5FA">Édipo</text>
  <text x="1028" y="358" font-family="Inter, Arial" font-size="14" font-weight="700" fill="#F5B860">R$ 17,00</text>
  <text x="908" y="428" font-family="Inter, Arial" font-size="14" fill="#D9E5FA">Mauricy Pace</text>
  <text x="1028" y="428" font-family="Inter, Arial" font-size="14" font-weight="700" fill="#F5B860">R$ 17,00</text>
  <text x="908" y="498" font-family="Inter, Arial" font-size="14" fill="#D9E5FA">Treinador Ruivaro</text>
  <text x="1028" y="498" font-family="Inter, Arial" font-size="14" font-weight="700" fill="#F5B860">R$ 17,00</text>
  <text x="908" y="568" font-family="Inter, Arial" font-size="14" fill="#D9E5FA">Wesley (conv.)</text>
  <text x="1028" y="568" font-family="Inter, Arial" font-size="14" font-weight="700" fill="#F5B860">R$ 2,00</text>
</svg>
