<svg width="1200" height="760" viewBox="0 0 1200 760" fill="none" xmlns="http://www.w3.org/2000/svg">
  <defs>
    <linearGradient id="outer" x1="0" y1="0" x2="1200" y2="760" gradientUnits="userSpaceOnUse">
      <stop stop-color="#E8FFF4"/>
      <stop offset="1" stop-color="#EAF2FF"/>
    </linearGradient>
    <pattern id="wall" width="28" height="28" patternUnits="userSpaceOnUse">
      <circle cx="8" cy="8" r="1.2" fill="#1E252B"/>
      <circle cx="20" cy="16" r="1.1" fill="#1E252B"/>
      <circle cx="14" cy="23" r="1" fill="#1E252B"/>
    </pattern>
  </defs>

  <rect width="1200" height="760" rx="32" fill="url(#outer)"/>

  <rect x="400" y="20" width="400" height="720" rx="32" fill="#0A0F13"/>
  <rect x="410" y="30" width="380" height="700" rx="26" fill="#0E1318"/>

  <rect x="410" y="30" width="380" height="86" rx="26" fill="#0B0F14"/>
  <rect x="410" y="88" width="380" height="28" fill="#0B0F14"/>
  <text x="440" y="63" font-family="Inter, Arial" font-size="24" font-weight="700" fill="#FFFFFF">10:32</text>
  <text x="730" y="63" font-family="Inter, Arial" font-size="18" font-weight="700" fill="#FFFFFF">▮▮▮</text>
  <text x="760" y="63" font-family="Inter, Arial" font-size="18" font-weight="700" fill="#FFFFFF">◜◝</text>
  <rect x="744" y="42" width="38" height="24" rx="12" fill="#FFFFFF" fill-opacity="0.85"/>
  <text x="755" y="59" font-family="Inter, Arial" font-size="16" font-weight="700" fill="#0A0F13">78</text>

  <text x="424" y="98" font-family="Inter, Arial" font-size="40" fill="#FFFFFF">‹</text>
  <text x="446" y="96" font-family="Inter, Arial" font-size="40" fill="#FFFFFF">3</text>
  <circle cx="500" cy="88" r="20" fill="#DDE6F2"/>
  <circle cx="500" cy="88" r="16" fill="#F8C18E"/>
  <text x="530" y="86" font-family="Inter, Arial" font-size="28" font-weight="700" fill="#F4F8FF">Futebol - Quinta</text>
  <text x="530" y="108" font-family="Inter, Arial" font-size="14" fill="#C6D0DB">3 online</text>

  <rect x="410" y="116" width="380" height="556" fill="#0D1116"/>
  <rect x="410" y="116" width="380" height="556" fill="url(#wall)" opacity="0.55"/>

  <rect x="434" y="136" width="300" height="58" rx="14" fill="#20272D"/>
  <text x="452" y="164" font-family="Inter, Arial" font-size="13" font-weight="700" fill="#46D17E">~Alison Lazaretti +55 11 93456-7821</text>
  <text x="452" y="184" font-family="Inter, Arial" font-size="20" fill="#FFFFFF">/bora</text>
  <text x="706" y="184" font-family="Inter, Arial" font-size="14" fill="#A4B0BC">17:37</text>

  <rect x="434" y="200" width="332" height="438" rx="16" fill="#1F252B"/>
  <text x="448" y="230" font-family="Inter, Arial" font-size="17" font-weight="700" fill="#FF5C97">[BOT] FC Joga Simples</text>

  <rect x="448" y="238" width="304" height="56" rx="10" fill="#252C33"/>
  <text x="458" y="260" font-family="Inter, Arial" font-size="14" fill="#FFFFFF">gmail.com</text>
  <text x="458" y="282" font-family="Inter, Arial" font-size="14" fill="#B8C2CE">pixpelada.fake@gmail.com</text>

  <text x="448" y="318" font-family="Inter, Arial" font-size="18" fill="#FFFFFF">⚽ CAMPO DO VIANA</text>
  <text x="448" y="346" font-family="Inter, Arial" font-size="18" fill="#FFFFFF">26/02 às 20h30</text>
  <text x="448" y="374" font-family="Inter, Arial" font-size="18" fill="#FFFFFF">Pix: <tspan fill="#22C875" text-decoration="underline">pixpelada.fake@gmail.com</tspan></text>
  <text x="448" y="402" font-family="Inter, Arial" font-size="18" fill="#FFFFFF">Valor: R$ 17,00</text>

  <text x="448" y="442" font-family="Inter, Arial" font-size="16" fill="#FFFFFF">1 - 🖐 Forja ✅</text>
  <text x="448" y="466" font-family="Inter, Arial" font-size="16" fill="#FFFFFF">2 - 🖐 Macali (conv. Édipo)</text>
  <text x="448" y="490" font-family="Inter, Arial" font-size="16" fill="#FFFFFF">3 - Andrei Didomenico ✅</text>
  <text x="448" y="514" font-family="Inter, Arial" font-size="16" fill="#FFFFFF">4 - Lucas ✅</text>
  <text x="448" y="538" font-family="Inter, Arial" font-size="16" fill="#FFFFFF">5 - Édipo ✅</text>
  <text x="448" y="562" font-family="Inter, Arial" font-size="16" fill="#FFFFFF">6 - Renan Gomes ✅</text>
  <text x="448" y="586" font-family="Inter, Arial" font-size="16" fill="#FFFFFF">7 - Luan Arruda ✅</text>
  <text x="448" y="610" font-family="Inter, Arial" font-size="16" fill="#FFFFFF">8 - Arthur ✅</text>
  <text x="448" y="634" font-family="Inter, Arial" font-size="16" fill="#FFFFFF">9 - Cleomar Hendges 🇺🇾 ✅</text>

  <text x="710" y="630" font-family="Inter, Arial" font-size="14" fill="#A4B0BC">17:37</text>

  <rect x="410" y="672" width="380" height="58" rx="0" fill="#0B0F14"/>
  <text x="430" y="709" font-family="Inter, Arial" font-size="46" fill="#FFFFFF">＋</text>
  <rect x="472" y="688" width="250" height="30" rx="15" fill="#20262C"/>
  <text x="744" y="710" font-family="Inter, Arial" font-size="26" fill="#FFFFFF">◌</text>
</svg>
